<svg xmlns="http://www.w3.org/2000/svg" viewBox="0 0 185.1 75.76"><defs><style>.cls-1{font-size:38.34px;}.cls-1,.cls-2,.cls-4{fill:#e8e8e8;}.cls-1,.cls-2{font-family:Dublon;}.cls-2{font-size:30px;}.cls-3{fill:#d64045;}</style></defs><title>Ресурс 1</title><g id="Слой_2" data-name="Слой 2"><g id="Слой_5" data-name="Слой 5"><text class="cls-1" transform="translate(0 43.46)">P</text><text class="cls-1" transform="translate(29.9 43.46)">H</text><text class="cls-1" transform="translate(121.22 43.46)">T</text><text class="cls-1" transform="translate(153.59 42.95)">O</text><text class="cls-1" transform="translate(153.59 43.46)">O</text><text class="cls-2" transform="translate(38.23 69.7)">gallery</text><path class="cls-3" d="M74,6.3a7.18,7.18,0,0,1,1.29-.91A6.46,6.46,0,0,1,76.25,5a5.79,5.79,0,0,1,1.07-.26,6.89,6.89,0,0,1,.74-.05l9.32,0a14.21,14.21,0,0,1,.71-1.35,10.84,10.84,0,0,1,.8-1.17A6.5,6.5,0,0,1,90,1,4.4,4.4,0,0,1,91.16.25,4.73,4.73,0,0,1,92.07,0l7.67,0a3,3,0,0,1,.73.19,3.67,3.67,0,0,1,1.89,2.37l.26,1.81a11.37,11.37,0,0,1,2.59.39,7,7,0,0,1,4.29,2.5,5.11,5.11,0,0,1,.76,1.91v.92a5.82,5.82,0,0,1,.7,1,6,6,0,0,1,.68,3V29.13a5.56,5.56,0,0,1-.22,1.19c-.87,3.07-3.92,4.61-4.73,5a10.66,10.66,0,0,1-1.9.75l-3.18.11a11.08,11.08,0,0,0,1.8-.93,11.22,11.22,0,0,0,4-4.67l.47-16a9.75,9.75,0,0,0-.64-1.62,9.9,9.9,0,0,0-5.14-4.54c-.87-.32-2.35-.87-3.56-.22a6.22,6.22,0,0,0-.88.68,7.56,7.56,0,0,1-2.85,1.34L82.53,9.79a2.17,2.17,0,0,1-.9-.61c-.46-.51-.33-.89-.75-1.36a2.6,2.6,0,0,0-1.4-.7A5.3,5.3,0,0,0,77.68,7a10.12,10.12,0,0,0-4,.89,9.2,9.2,0,0,0-1.51.86A6.14,6.14,0,0,1,73,7.35,6.06,6.06,0,0,1,74,6.3Z"/><path class="cls-3" d="M80.25,4.17V3a6.06,6.06,0,0,1,1.18-.67,7.49,7.49,0,0,1,5.79.27V4.19Z"/><path class="cls-4" d="M96.69,12.48a1.46,1.46,0,0,1,.9.1,1.68,1.68,0,0,1,.72.66,2.2,2.2,0,0,1,.36,1.21,1.71,1.71,0,0,1-.46,1.32,1.45,1.45,0,0,1-1.38.3,1.64,1.64,0,0,1-.93-.88,2,2,0,0,1-.2-1.69A1.55,1.55,0,0,1,96.69,12.48Z"/><path class="cls-4" d="M100.58,13.37a1.46,1.46,0,0,1,.9.1,1.68,1.68,0,0,1,.72.66,2.08,2.08,0,0,1,.35,1.21,1.66,1.66,0,0,1-.45,1.32,1.46,1.46,0,0,1-1.38.3,1.61,1.61,0,0,1-.93-.88,2,2,0,0,1-.2-1.69A1.57,1.57,0,0,1,100.58,13.37Z"/><path class="cls-3" d="M77.37,14.54a10.82,10.82,0,0,1,7.13-1.39l-2,1.78a16,16,0,0,0-2.48-.38A18.76,18.76,0,0,0,77.37,14.54Z"/><path class="cls-3" d="M83.73,15.24l2.08-1.81a14.26,14.26,0,0,1,1.84.68,14.11,14.11,0,0,1,1.68.92L87,16.67a15.07,15.07,0,0,0-1.4-.73A14.91,14.91,0,0,0,83.73,15.24Z"/><path class="cls-3" d="M87.67,17.13l2.42-1.58a17,17,0,0,1,1.38,1.1c.43.39.82.78,1.16,1.14l-2.52,1.47A11.77,11.77,0,0,0,89,18.16,13,13,0,0,0,87.67,17.13Z"/><path class="cls-3" d="M90.67,19.91l2.54-1.46c.28.36.58.78.88,1.25A12.32,12.32,0,0,1,95,21.43L92.4,22.65a12.23,12.23,0,0,0-.69-1.25A13.72,13.72,0,0,0,90.67,19.91Z"/><path class="cls-3" d="M92.83,23.54l2.62-1c.12.37.23.77.33,1.19s.23,1,.3,1.49l-2.51.74c-.08-.36-.19-.74-.31-1.14S93,23.93,92.83,23.54Z"/><path class="cls-3" d="M93.86,27.23l2.41-.56c0,.38,0,.79,0,1.22s0,.84-.09,1.21L94,29.17c0-.37,0-.76-.08-1.16S93.89,27.48,93.86,27.23Z"/><path class="cls-3" d="M92.73,36.7c.17-.48.33-1,.48-1.52s.3-1.17.41-1.71l1.19.19a13.13,13.13,0,0,1-1,1.61A14.3,14.3,0,0,1,92.73,36.7Z"/><path class="cls-3" d="M94,30.54l1.92.1c-.06.28-.14.57-.23.88s-.2.6-.3.86l-1.54-.21c0-.29.08-.59.11-.91S94,30.77,94,30.54Z"/><path class="cls-3" d="M64.39,29.12a10,10,0,0,1,.54-3.79,11.78,11.78,0,0,1,10.52-7.45c4.62-.15,7.78,2.71,8.93,3.75A14.33,14.33,0,0,1,89.2,33.14a10.6,10.6,0,0,1-4.82,8.13,12.92,12.92,0,0,1-7.14,2.19,8.57,8.57,0,0,0,2.79-1,9.44,9.44,0,0,0,4-5.42,11.36,11.36,0,0,0-1.52-9.09,12.28,12.28,0,0,0-4.7-4.3,10.09,10.09,0,0,0-6.45-1.43,7.62,7.62,0,0,0-3.91,1.71,7.71,7.71,0,0,0-1.23,1.39A11.9,11.9,0,0,0,64.39,29.12Z"/><path class="cls-3" d="M69.3,29.13a6.9,6.9,0,0,0-.45,3.19,7.2,7.2,0,0,0,2.26,4.46,6.06,6.06,0,0,0,3.13,1.81,5.18,5.18,0,0,0,3.88-.67A5.07,5.07,0,0,0,80,35.45a6.15,6.15,0,0,0,.21-3.58,7.24,7.24,0,0,0-1.86-3.51,6.55,6.55,0,0,0-3-2,6.42,6.42,0,0,0-2.66-.22,4.09,4.09,0,0,1,.67,1.2,4.14,4.14,0,0,1,.24,1.3A2.1,2.1,0,0,1,73.29,30a1.59,1.59,0,0,1-1,.66c-.28,0-.48-.06-.64.08a.65.65,0,0,0-.16.51,6.88,6.88,0,0,0,.11,2,5.42,5.42,0,0,0,.5,1.2,8.8,8.8,0,0,0,.9,1.33c.25.31.58.7,1,1.14a3.53,3.53,0,0,1-1.43-.72,4.71,4.71,0,0,1-1.09-1.51,7.79,7.79,0,0,1-.77-1.78,7.34,7.34,0,0,1-.27-2.15A6.34,6.34,0,0,1,70.5,30Z"/><path class="cls-4" d="M72.9,31.53a1.43,1.43,0,0,1,.72-.76,1.49,1.49,0,0,1,1.13,0,2.13,2.13,0,0,1,1,1,3,3,0,0,1,.4,1.31,1.74,1.74,0,0,1-.36,1.38,1.52,1.52,0,0,1-1.18.34,2,2,0,0,1-1.33-.92,2.72,2.72,0,0,1-.52-1.45A1.86,1.86,0,0,1,72.9,31.53Z"/><path class="cls-4" d="M77.68,31.43a.9.9,0,0,1,.78.14,1.16,1.16,0,0,1,.42.86,1,1,0,0,1-.24.87.9.9,0,0,1-.86.1,1.11,1.11,0,0,1-.64-.62,1.13,1.13,0,0,1,0-.85A.92.92,0,0,1,77.68,31.43Z"/></g></g></svg>