<svg version="1.1" id="Layer_1" xmlns="http://www.w3.org/2000/svg" xmlns:xlink="http://www.w3.org/1999/xlink" x="0px" y="0px"
	 viewBox="0 0 496.158 496.158" style="enable-background:new 0 0 496.158 496.158;" xml:space="preserve">
<path style="fill:#4ABC96;" d="M496.158,248.085c0-137.022-111.07-248.082-248.076-248.082C111.07,0.003,0,111.063,0,248.085
	c0,137.001,111.07,248.07,248.082,248.07C385.088,496.155,496.158,385.086,496.158,248.085z"/>
<path style="fill:#1D1D1E;" d="M248.082,496.155c70.204,0,133.589-29.171,178.719-76.042c-2.755-15.131-5.644-28.901-8.284-37.38
	c-8.494-27.279-81.197-49.333-170.825-49.333S86.133,355.454,77.64,382.733c-2.64,8.479-5.529,22.247-8.283,37.377
	C114.486,466.983,177.874,496.155,248.082,496.155z"/>
<path style="fill:#D6E7F2;" d="M343.079,450.709h-76.5v44.752c26.923-1.985,52.65-8.261,76.5-18.159V450.709z"/>
<g>
	<rect x="266.579" y="449.849" style="fill:#556877;" width="76.5" height="6.223"/>
	<path style="fill:#556877;" d="M335.415,465.845h-31.182c-0.875,0-1.585-0.709-1.585-1.585c0-0.876,0.71-1.586,1.585-1.586h31.182
		c0.876,0,1.586,0.71,1.586,1.586C337.001,465.135,336.291,465.845,335.415,465.845z"/>
	<path style="fill:#556877;" d="M335.415,477.736h-31.182c-0.875,0-1.585-0.71-1.585-1.586c0-0.875,0.71-1.585,1.585-1.585h31.182
		c0.876,0,1.586,0.71,1.586,1.585C337.001,477.026,336.291,477.736,335.415,477.736z"/>
	<path style="fill:#556877;" d="M304.233,486.456c-0.875,0-1.585,0.709-1.585,1.586c0,0.875,0.71,1.585,1.585,1.585h0.554
		c4.098-0.958,8.159-2.012,12.175-3.171H304.233z"/>
	<rect x="272.519" y="461.089" style="fill:#556877;" width="23.387" height="29.728"/>
</g>
<g>
	<path style="fill:#D4D6D8;" d="M248.163,443.412c19.558,0,41.748-108,41.748-108l-42.154,26.74l-41.512-26.74
		C206.245,335.412,228.604,443.412,248.163,443.412z"/>
	<polygon style="fill:#D4D6D8;" points="210.167,335.412 247.787,363.485 285.991,335.412 287.852,322.246 247.829,316.996 
		208.306,322.246 	"/>
</g>
<path style="fill:#E2A379;" d="M286.969,282.118h-77.78c12.136,36.588,0.978,53.294,0.978,53.294l26.912,6.063h22l26.912-6.062
	C285.991,335.412,274.833,318.706,286.969,282.118z"/>
<g>
	<polygon style="fill:#F3FAFF;" points="282.079,358.746 287.852,322.246 305.745,337.792 	"/>
	<polygon style="fill:#F3FAFF;" points="214.079,358.746 208.306,322.246 190.412,337.792 	"/>
	<path style="fill:#F3FAFF;" d="M305.745,337.792l-17.893-15.547l-39.794,19.229c0,0,34.03,17.28,34.198,17.113L305.745,337.792z"/>
	<path style="fill:#F3FAFF;" d="M190.412,337.792l17.894-15.547l39.753,19.229c0,0-33.989,17.28-34.157,17.113L190.412,337.792z"/>
</g>
<g>
	<polygon style="fill:#86B4D1;" points="248.048,341.475 232.329,349.417 248.048,375.017 263.767,349.417 	"/>
	<path style="fill:#86B4D1;" d="M248.155,443.412c5.087,0,10.371-11.511,15.318-27.895l-11.363-53.605h-8.141l-11.263,53.289
		C237.7,431.758,243.034,443.412,248.155,443.412z"/>
</g>
<g>
	<path style="fill:#4A4A54;" d="M196.579,332.371l-12.5,6.438l8,55.27l16.334-3.667l-12,14.667l51.666,53.416l-0.021-15.083
		c0,0-33.989-84.657-34.157-84.824L196.579,332.371z"/>
	<path style="fill:#4A4A54;" d="M299.579,332.371l12.5,6.438l-8,55.27l-16.333-3.667l12,14.667l-51.667,53.416l0.021-15.083
		c0,0,33.989-84.657,34.156-84.824L299.579,332.371z"/>
</g>
<path style="fill:#F4B382;" d="M336.332,175.175c0-92.429-39.513-113.596-88.252-113.596c-48.741,0-88.254,21.167-88.254,113.596
	c0,31.266,6.19,55.765,15.462,74.673c20.396,41.598,55.7,56.136,72.792,56.136s52.396-14.538,72.79-56.136
	C330.141,230.94,336.332,206.441,336.332,175.175z"/>
<path style="fill:#D89364;" d="M274.078,265.236c0,2.296-11.64,8.578-25.999,8.578s-25.999-6.281-25.999-8.578
	c0-1.415,8.251-5.467,13.796-6.218c3.461-0.469,12.203,2.579,12.203,2.579s8.621-3.056,12.055-2.599
	C265.762,259.746,274.078,265.236,274.078,265.236z"/>
<path style="fill:#CE8757;" d="M274.078,265.236c0,2.296-11.64,11.177-25.999,11.177s-25.999-8.88-25.999-11.177
	c0,0,10.591,1.146,25.999,1.146S274.078,265.236,274.078,265.236z"/>
<path style="fill:#F4B382;" d="M170.413,238.639c-8.439,1.443-14.352,0.148-19.112-27.698s1.657-31.479,10.096-32.922
	L170.413,238.639z"/>
	<g>
		<path style="fill:#51250D;" d="M336.332,178.246c11.414-22.762,8.423-43.121,2.747-56.5c-9.333-22-21.117-28.587-21.117-28.587
			c-7.551-24.748-41.44-33.08-69.882-33.08c-48.741,0-95.001,25.738-88.254,118.167l20.253-3.417c0-2.629,97-58.75,97-58.75
			c9.667,5.667,25,2,25,2c0-3.804,14.099,56.75,14.099,56.75L336.332,178.246z"/>
		<path style="fill:#51250D;" d="M165.454,140.767c-4.25,10.875-5.628,24.359-5.628,37.479c0,0,8.753-1.917,8.753,2.583l2.75,27.625
			l3.875-1.875c-0.25-23,4.875-31.75,4.875-31.75L165.454,140.767z"/>
	</g>
<path style="fill:#F4B382;" d="M325.845,238.639c8.438,1.443,14.35,0.148,19.111-27.698s-1.658-31.479-10.096-32.922
	L325.845,238.639z"/>
<path style="fill:#51250D;" d="M330.803,140.767c4.25,10.875,5.628,24.359,5.628,37.479c0,0-8.753-1.917-8.753,2.583l-2.75,27.625
	l-3.875-1.875c0.25-23-4.875-31.75-4.875-31.75L330.803,140.767z"/>
</svg>
